<svg xmlns="http://www.w3.org/2000/svg" width="206.09" height="74.299" fill="none"><rect width="100%" height="100%" class="selected"/><defs><linearGradient id="b" x1=".5" y1="0" x2=".5" y2="1"><stop stop-color="#3F4A99"/><stop offset="1" stop-color="#8A0094"/></linearGradient><linearGradient id="c" x1=".5" y1="0" x2=".5" y2="1"><stop stop-color="#3F4A99"/><stop offset="1" stop-color="#8A0094"/></linearGradient><filter id="a" x="0" y="0" width="104" height="104" filterUnits="userSpaceOnUse" color-interpolation-filters="sRGB"><feFlood flood-opacity="0" result="BackgroundImageFix"/><feColorMatrix in="SourceAlpha" values="0 0 0 0 0 0 0 0 0 0 0 0 0 0 0 0 0 0 127 0"/><feMorphology radius="8" operator="dilate" in="SourceAlpha" result="effect1_dropShadow"/><feOffset dy="2"/><feGaussianBlur stdDeviation="4"/><feColorMatrix values="0 0 0 0 0.152941 0 0 0 0 0.270588 0 0 0 0 0.588235 0 0 0 0.03 0"/><feBlend in2="BackgroundImageFix" result="effect1_dropShadow"/><feBlend in="SourceGraphic" in2="effect1_dropShadow" result="shape"/></filter></defs><g class="currentLayer"><g filter="url(#a)"><path d="M1.874 16.273c0-8.285 6.716-15 15-15h42c8.284 0 15 6.715 15 15v42c0 8.284-6.716 15-15 15h-42c-8.284 0-15-6.716-15-15v-42z" fill="#EBEBEB"/></g><path d="M127.448 37.22c.91.338 1.613.83 2.112 1.475.5.645.748 1.422.748 2.332 0 1.349-.557 2.398-1.672 3.146-1.115.733-2.728 1.1-4.84 1.1h-8.668v-15.4h8.228c2.053 0 3.601.366 4.642 1.1 1.056.733 1.584 1.708 1.584 2.926a3.51 3.51 0 01-.55 1.936c-.352.572-.88 1.034-1.584 1.386zm-7.216-3.717v2.288h2.42c1.13 0 1.694-.382 1.694-1.144 0-.763-.565-1.144-1.694-1.144h-2.42zm3.124 8.14c1.144 0 1.716-.404 1.716-1.21 0-.807-.572-1.21-1.716-1.21h-3.124v2.42h3.124zm21.592-.286v3.916h-12.804v-15.4h12.518v3.916h-7.414v1.804h6.512v3.74h-6.512v2.024h7.7zm5.342-7.458h-4.51v-4.026h14.212v4.026h-4.51v11.374h-5.192V33.899zm27.457-.198l-5.786 12.958c-.47 1.085-1.012 1.855-1.628 2.31-.616.454-1.357.682-2.222.682a4.533 4.533 0 01-1.562-.264 3.385 3.385 0 01-1.254-.792l.726-1.166a2.88 2.88 0 002.112.88c.528 0 .975-.147 1.342-.44.381-.294.733-.792 1.056-1.496l.506-1.122-5.17-11.55h1.628l4.356 9.834 4.356-9.834h1.54zm6.607 11.682c-1.114 0-2.119-.25-3.014-.748a5.624 5.624 0 01-2.112-2.112c-.513-.895-.77-1.907-.77-3.036 0-1.13.257-2.142.77-3.036a5.466 5.466 0 012.112-2.09c.895-.499 1.9-.748 3.014-.748 1.115 0 2.12.249 3.014.748a5.298 5.298 0 012.09 2.09c.514.894.77 1.906.77 3.036 0 1.129-.256 2.141-.77 3.036a5.45 5.45 0 01-2.09 2.112c-.894.498-1.899.748-3.014.748zm0-1.386c.822 0 1.555-.184 2.2-.55a3.96 3.96 0 001.54-1.606c.367-.69.55-1.474.55-2.354 0-.88-.183-1.665-.55-2.354a3.816 3.816 0 00-1.54-1.584c-.645-.382-1.378-.572-2.2-.572-.82 0-1.562.19-2.222.572a4.011 4.011 0 00-1.54 1.584c-.366.689-.55 1.474-.55 2.354 0 .88.184 1.664.55 2.354a4.17 4.17 0 001.54 1.606c.66.366 1.401.55 2.222.55zM203.845 33.7v11.572h-1.496V43.16a4.355 4.355 0 01-1.694 1.65c-.718.381-1.54.572-2.464.572-1.51 0-2.706-.418-3.586-1.254-.865-.851-1.298-2.09-1.298-3.718V33.7h1.562v6.556c0 1.217.301 2.141.902 2.772.602.63 1.46.946 2.574.946 1.218 0 2.178-.367 2.882-1.1.704-.748 1.056-1.782 1.056-3.102V33.7h1.562z" fill="#EBEBEB"/><rect x="94.874" y="9.273" width="2" height="55" rx="1" fill="#274596" fill-opacity=".07"/><path fill="url(#b)" d="M19.874 19.273h17v17h-17z"/><path fill="#222" d="M19.874 39.273h17v17h-17z"/><path fill="url(#c)" d="M39.874 39.273h17v17h-17z"/></g></svg>