<svg xmlns="http://www.w3.org/2000/svg" width="137" height="132.36" fill="none"><g filter="url(#filter0_d)" transform="translate(-16 -14.5)"><path d="M84.5 147c37.831 0 68.5-29.631 68.5-66.182 0-36.55-30.669-66.181-68.5-66.181S16 44.267 16 80.818 46.669 147 84.5 147z" fill="url(#paint0_linear)"/><path d="M84.5 147c37.831 0 68.5-29.631 68.5-66.182 0-36.55-30.669-66.181-68.5-66.181S16 44.267 16 80.818 46.669 147 84.5 147z" fill="url(#paint1_radial)"/><path d="M124.95 66.838V60.12c0-2.727-2.18-4.938-5.004-4.938H62.07v11.656h62.88z" fill="#FEAFFF"/><path d="M64.474 66.838a6.12 6.12 0 01-1.314-3.788c0-4.346 3.646-7.868 8.144-7.868h-17.86c-2.822 0-5.11 2.21-5.11 4.938v6.718h16.14z" fill="#FC54FF"/><path d="M48.333 66.061h37.341v12.144h-37.34V66.061z" fill="#FE81FF"/><path d="M77.507 72.133c0 3.354 2.814 6.072 6.285 6.072h41.158V66.061H83.792c-3.47 0-6.285 2.719-6.285 6.072z" fill="#FE80FF"/><path d="M62.07 77.12v26.974h57.876c2.823 0 5.004-2.21 5.004-4.938V77.119H62.07z" fill="#FEAFFF"/><path d="M48.333 77.12v22.036c0 2.727 2.289 4.938 5.112 4.938h17.859c-4.498 0-8.145-3.523-8.145-7.869 0-8.144 6.834-14.745 15.263-14.745h46.528v-4.36H48.333z" fill="#EEEFEE"/><path d="M110.515 100.213c3.448 0 6.243-2.7 6.243-6.032 0-3.331-2.795-6.032-6.243-6.032-3.448 0-6.243 2.7-6.243 6.032 0 3.331 2.795 6.032 6.243 6.032z" fill="#fff"/><path d="M76.976 87.082H63.098c-.568 0-1.028-.444-1.028-.993v-2.204c0-.549.46-.994 1.028-.994h13.878c.568 0 1.028.445 1.028.994v2.204c0 .548-.46.993-1.028.993zm13.11 0h-7.11c-.568 0-1.028-.444-1.028-.993v-2.204c0-.549.46-.994 1.028-.994h7.11c.568 0 1.029.445 1.029.994v2.204c0 .548-.46.993-1.029.993zm13.36 0h-7.11c-.568 0-1.029-.444-1.029-.993v-2.204c0-.549.46-.994 1.029-.994h7.11c.568 0 1.028.445 1.028.994v2.204c0 .548-.46.993-1.028.993zm13.359 0h-7.11c-.568 0-1.029-.444-1.029-.993v-2.204c0-.549.46-.994 1.029-.994h7.11c.568 0 1.028.445 1.028.994v2.204c0 .548-.46.993-1.028.993z" fill="#471658"/><path d="M76.976 85.649H63.098c-.568 0-1.028-.445-1.028-.994v-2.203c0-.55.46-.994 1.028-.994h13.878c.568 0 1.028.445 1.028.994v2.203c0 .55-.46.994-1.028.994zm13.11 0h-7.11c-.568 0-1.028-.445-1.028-.994v-2.203c0-.55.46-.994 1.028-.994h7.11c.568 0 1.029.445 1.029.994v2.203c0 .55-.46.994-1.029.994zm13.36 0h-7.11c-.568 0-1.029-.445-1.029-.994v-2.203c0-.55.46-.994 1.029-.994h7.11c.568 0 1.028.445 1.028.994v2.203c0 .55-.46.994-1.028.994zm13.359 0h-7.11c-.568 0-1.029-.445-1.029-.994v-2.203c0-.55.46-.994 1.029-.994h7.11c.568 0 1.028.445 1.028.994v2.203c0 .55-.46.994-1.028.994z" fill="#9903CF"/><path d="M48.483 110.453c9.77 0 17.69-7.652 17.69-17.091 0-9.44-7.92-17.092-17.69-17.092-9.77 0-17.69 7.652-17.69 17.092 0 9.44 7.92 17.091 17.69 17.091z" fill="#FEC502"/><path d="M30 93.362c0 9.862 8.275 17.857 18.482 17.857V75.505C38.275 75.505 30 83.499 30 93.362z" fill="#FFE65A"/><path d="M48.483 80.232c7.494 0 13.59 5.89 13.59 13.13 0 7.24-6.096 13.13-13.59 13.13-7.493 0-13.59-5.89-13.59-13.13 0-7.24 6.097-13.13 13.59-13.13zm0-4.727c-10.207 0-18.482 7.995-18.482 17.857 0 9.862 8.275 17.856 18.482 17.856 10.208 0 18.483-7.994 18.483-17.857 0-9.862-8.275-17.856-18.483-17.856z" fill="#FFA50A"/><path d="M46.723 76.64c-.008-.432.185-.867.579-1.096-9.158.558-16.504 7.559-17.24 16.364-.056.684.511 1.268 1.222 1.268a1.21 1.21 0 001.219-1.095c.658-7.727 7.21-13.861 15.292-14.193-.726-.076-1.082-.666-1.072-1.249z" fill="#FFE65A"/><path d="M65.696 93.386a1.21 1.21 0 00-1.22 1.105c-.595 7.95-7.426 14.255-15.778 14.362 1.169.274 1.202 2.002.104 2.362 9.616-.157 17.443-7.409 18.116-16.571.05-.681-.515-1.259-1.222-1.259z" fill="#FA870A"/><path d="M48.347 85.278c-.534 0-.923.305-.923.633v.657c-2.574.352-4.856 1.784-4.856 4.763 0 3.003 2.622 4.012 4.856 4.833v3.801c-1.797-.305-2.622-1.689-3.642-1.689-.923 0-1.652 1.173-1.652 1.97 0 1.502 2.38 2.957 5.294 3.05v.587c0 .329.389.634.923.634.461 0 .923-.305.923-.634v-.68c2.84-.446 4.783-2.206 4.783-5.115 0-3.167-2.574-4.27-4.783-5.067v-3.426c1.578.117 2.04.868 2.84.868 1.07 0 1.506-1.29 1.506-1.924 0-1.619-2.84-1.994-4.346-2.04v-.587c0-.329-.462-.634-.923-.634zm-.68 7.18c-.923-.376-1.554-.798-1.554-1.479 0-.563.461-1.102 1.554-1.313v2.792zm1.36 7.484v-3.144c.874.399 1.481.891 1.481 1.666 0 .844-.655 1.29-1.481 1.478z" fill="#FFA50A"/><path d="M47.424 101.198c-2.914-.094-5.294-1.549-5.294-3.05 0-.798.729-1.97 1.652-1.97 1.02 0 1.845 1.383 3.642 1.688v-3.8c-2.234-.822-4.856-1.83-4.856-4.834 0-2.98 2.282-4.41 4.856-4.763v-.657c0-.328.389-.633.923-.633.462 0 .923.305.923.633v.587c1.505.047 4.347.422 4.347 2.041 0 .634-.437 1.924-1.506 1.924-.801 0-1.263-.75-2.841-.868v3.426c2.21.797 4.784 1.9 4.784 5.067 0 2.91-1.943 4.67-4.784 5.115v.68c0 .329-.461.634-.923.634-.534 0-.923-.305-.923-.634v-.586zm.243-10.84v-2.791c-1.093.21-1.554.75-1.554 1.313 0 .68.631 1.103 1.554 1.479zm1.36 4.341v3.144c.826-.188 1.481-.633 1.481-1.478 0-.774-.607-1.267-1.481-1.666z" fill="#fff"/></g><defs><radialGradient id="paint1_radial" cx="0" cy="0" r="1" gradientUnits="userSpaceOnUse" gradientTransform="matrix(69.1957 0 0 66.8538 84.5 80.818)"><stop offset=".005" stop-color="#8D00DB" stop-opacity=".5"/><stop offset="1" stop-color="#FC54FF" stop-opacity="0"/></radialGradient><linearGradient id="paint0_linear" x1="36.063" y1="127.616" x2="129.603" y2="30.799" gradientUnits="userSpaceOnUse"><stop stop-color="#40509B"/><stop offset="1" stop-color="#910197"/></linearGradient><filter id="filter0_d" x="0" y=".637" width="169" height="164.363" filterUnits="userSpaceOnUse" color-interpolation-filters="sRGB"><feFlood flood-opacity="0" result="BackgroundImageFix"/><feColorMatrix in="SourceAlpha" values="0 0 0 0 0 0 0 0 0 0 0 0 0 0 0 0 0 0 127 0"/><feMorphology radius="8" operator="dilate" in="SourceAlpha" result="effect1_dropShadow"/><feOffset dy="2"/><feGaussianBlur stdDeviation="4"/><feColorMatrix values="0 0 0 0 0.152941 0 0 0 0 0.270588 0 0 0 0 0.588235 0 0 0 0.03 0"/><feBlend in2="BackgroundImageFix" result="effect1_dropShadow"/><feBlend in="SourceGraphic" in2="effect1_dropShadow" result="shape"/></filter></defs></svg>