<svg xmlns="http://www.w3.org/2000/svg" width="137" height="137" fill="none"><g filter="url(#filter0_d)" transform="translate(-16 -14)"><path d="M84.5 151c37.832 0 68.5-30.668 68.5-68.5C153 44.669 122.332 14 84.5 14 46.669 14 16 44.669 16 82.5c0 37.832 30.669 68.5 68.5 68.5z" fill="url(#paint0_linear)"/><path d="M84.5 151c37.832 0 68.5-30.668 68.5-68.5C153 44.669 122.332 14 84.5 14 46.669 14 16 44.669 16 82.5c0 37.832 30.669 68.5 68.5 68.5z" fill="url(#paint1_radial)"/><path d="M77.114 96.478c.02 7.675.058 15.35.114 23.024.008 1.135.918 2.063 2.03 2.068 3.495.018 6.99.018 10.484 0 1.112-.005 2.022-.933 2.03-2.068.02-2.741.038-5.482.053-8.223a4607.056 4607.056 0 00-14.711-14.8z" fill="url(#paint2_linear)"/><path d="M89.846 76.331a9524.79 9524.79 0 00-10.691 0 2.06 2.06 0 00-2.058 2.058c-.005 6.03 0 12.06.017 18.09.036 8.175 6.632 14.842 14.711 14.8.061-10.963.088-21.926.079-32.89a2.06 2.06 0 00-2.058-2.058z" fill="url(#paint3_linear)"/><path d="M114.733 59.716c.14 7.594.211 15.19.211 22.784a2.04 2.04 0 002.055 2.031c3.565-.006 7.13-.012 10.696-.02 1.136-.003 2.059-.903 2.059-2.011 0-2.676-.013-5.352-.04-8.028-4.98-4.86-9.988-9.791-14.981-14.756z" fill="url(#paint4_linear)"/><path d="M126.644 40.263a930.702 930.702 0 00-10.436-.417c-1.108-.038-1.974.844-1.938 1.968.198 5.967.352 11.935.463 17.902.143 8.112 6.796 14.703 14.981 14.757a804.124 804.124 0 00-.961-32.11c-.056-1.108-1.002-2.049-2.109-2.1z" fill="url(#paint5_linear)"/><path d="M39.44 100.16a803.52 803.52 0 00.807 22.477c.056 1.107 1.001 2.049 2.11 2.1 3.478.159 6.956.297 10.435.417 1.108.038 1.974-.844 1.938-1.968-.09-2.712-.171-5.425-.243-8.137-4.996-5-10.026-9.976-15.047-14.889z" fill="url(#paint6_linear)"/><path d="M52.001 80.469c-3.565.005-7.13.012-10.696.02-1.136.002-2.06.902-2.06 2.01 0 5.888.065 11.774.195 17.661.189 7.961 7 14.673 15.047 14.889-.287-10.85-.43-21.7-.43-32.55A2.04 2.04 0 0052 80.47z" fill="url(#paint7_linear)"/><path d="M58.171 84.132a1432.4 1432.4 0 00.209 22.848 2.124 2.124 0 002.074 2.073c3.532.055 7.064.098 10.596.129a2.006 2.006 0 002.022-2.037c-.02-2.739-.037-5.477-.05-8.215a4290.506 4290.506 0 00-14.85-14.798z" fill="url(#paint8_linear)"/><path d="M70.985 64.027c-3.55.022-7.1.052-10.649.09a2.103 2.103 0 00-2.073 2.063 1434.32 1434.32 0 00-.092 17.952c.015 8.103 6.705 14.75 14.85 14.798a3314.24 3314.24 0 010-32.86 2.024 2.024 0 00-2.036-2.043z" fill="url(#paint9_linear)"/><path d="M96.013 75.928c.015 7.667.004 15.335-.034 23.002a2.024 2.024 0 002.037 2.042c3.549-.021 7.099-.051 10.648-.089a2.103 2.103 0 002.073-2.063c.031-2.72.054-5.44.07-8.16-4.905-4.87-9.85-9.794-14.794-14.732z" fill="url(#paint10_linear)"/><path d="M108.546 55.947a1559.53 1559.53 0 00-10.596-.13 2.007 2.007 0 00-2.022 2.038c.045 6.024.073 12.049.085 18.073.018 8.179 6.619 14.784 14.793 14.732.063-10.88 0-21.76-.186-32.64a2.125 2.125 0 00-2.074-2.073z" fill="url(#paint11_linear)"/></g><defs><linearGradient id="paint11_linear" x1="79.792" y1="97.401" x2="146.078" y2="31.116" gradientUnits="userSpaceOnUse"><stop stop-color="#FC54FF"/><stop offset=".22" stop-color="#FD75FF"/><stop offset=".702" stop-color="#FEC8FF"/><stop offset="1" stop-color="#fff"/></linearGradient><linearGradient id="paint0_linear" x1="36.063" y1="130.937" x2="132.937" y2="34.063" gradientUnits="userSpaceOnUse"><stop stop-color="#40509B"/><stop offset="1" stop-color="#910197"/></linearGradient><linearGradient id="paint10_linear" x1="95.491" y1="95.674" x2="157.178" y2="33.986" gradientUnits="userSpaceOnUse"><stop stop-color="#FC54FF"/><stop offset=".22" stop-color="#FD75FF"/><stop offset=".702" stop-color="#FEC8FF"/><stop offset="1" stop-color="#fff"/></linearGradient><linearGradient id="paint2_linear" x1="74.865" y1="117.996" x2="108.378" y2="84.484" gradientUnits="userSpaceOnUse"><stop stop-color="#FDA0FF"/><stop offset=".377" stop-color="#FEC1FF"/><stop offset="1" stop-color="#fff"/></linearGradient><linearGradient id="paint3_linear" x1="54.889" y1="123.98" x2="103.124" y2="75.746" gradientUnits="userSpaceOnUse"><stop stop-color="#FDA0FF"/><stop offset=".377" stop-color="#FEC1FF"/><stop offset="1" stop-color="#fff"/></linearGradient><linearGradient id="paint4_linear" x1="112.683" y1="81.076" x2="146.01" y2="47.749" gradientUnits="userSpaceOnUse"><stop stop-color="#FDA0FF"/><stop offset=".377" stop-color="#FEC1FF"/><stop offset="1" stop-color="#fff"/></linearGradient><linearGradient id="paint5_linear" x1="93.579" y1="86.117" x2="139.65" y2="40.045" gradientUnits="userSpaceOnUse"><stop stop-color="#FDA0FF"/><stop offset=".377" stop-color="#FEC1FF"/><stop offset="1" stop-color="#fff"/></linearGradient><linearGradient id="paint6_linear" x1="38.011" y1="121.187" x2="69.9" y2="89.298" gradientUnits="userSpaceOnUse"><stop stop-color="#FDA0FF"/><stop offset=".377" stop-color="#FEC1FF"/><stop offset="1" stop-color="#fff"/></linearGradient><linearGradient id="paint7_linear" x1="18.118" y1="127.115" x2="65.158" y2="80.075" gradientUnits="userSpaceOnUse"><stop stop-color="#FDA0FF"/><stop offset=".377" stop-color="#FEC1FF"/><stop offset="1" stop-color="#fff"/></linearGradient><linearGradient id="paint8_linear" x1="57.911" y1="103.781" x2="118.487" y2="43.205" gradientUnits="userSpaceOnUse"><stop stop-color="#FC54FF"/><stop offset=".22" stop-color="#FD75FF"/><stop offset=".702" stop-color="#FEC8FF"/><stop offset="1" stop-color="#fff"/></linearGradient><linearGradient id="paint9_linear" x1="41.957" y1="105.824" x2="108.837" y2="38.945" gradientUnits="userSpaceOnUse"><stop stop-color="#FC54FF"/><stop offset=".22" stop-color="#FD75FF"/><stop offset=".702" stop-color="#FEC8FF"/><stop offset="1" stop-color="#fff"/></linearGradient><radialGradient id="paint1_radial" cx="0" cy="0" r="1" gradientUnits="userSpaceOnUse" gradientTransform="translate(84.5 82.5) scale(69.1957)"><stop offset=".005" stop-color="#8D00DB" stop-opacity=".5"/><stop offset="1" stop-color="#FC54FF" stop-opacity="0"/></radialGradient><filter id="filter0_d" x="0" y="0" width="169" height="169" filterUnits="userSpaceOnUse" color-interpolation-filters="sRGB"><feFlood flood-opacity="0" result="BackgroundImageFix"/><feColorMatrix in="SourceAlpha" values="0 0 0 0 0 0 0 0 0 0 0 0 0 0 0 0 0 0 127 0"/><feMorphology radius="8" operator="dilate" in="SourceAlpha" result="effect1_dropShadow"/><feOffset dy="2"/><feGaussianBlur stdDeviation="4"/><feColorMatrix values="0 0 0 0 0.152941 0 0 0 0 0.270588 0 0 0 0 0.588235 0 0 0 0.03 0"/><feBlend in2="BackgroundImageFix" result="effect1_dropShadow"/><feBlend in="SourceGraphic" in2="effect1_dropShadow" result="shape"/></filter></defs></svg>