<svg xmlns="http://www.w3.org/2000/svg" width="137" height="137" fill="none"><g filter="url(#filter0_d)" transform="translate(-16 -14)"><path d="M84.5 151c37.832 0 68.5-30.668 68.5-68.5C153 44.669 122.332 14 84.5 14 46.669 14 16 44.669 16 82.5c0 37.832 30.669 68.5 68.5 68.5z" fill="url(#paint0_linear)"/><path d="M84.5 151c37.832 0 68.5-30.668 68.5-68.5C153 44.669 122.332 14 84.5 14 46.669 14 16 44.669 16 82.5c0 37.832 30.669 68.5 68.5 68.5z" fill="url(#paint1_radial)"/><path d="M85.543 54.079s5.988-12.408 20.292-10.962a2.272 2.272 0 011.593.93 11.463 11.463 0 012.287 7.282c-.271 4.78-17.922 8.463-17.922 8.463l-3.74-.743-2.51-4.97z" fill="#EEEFEE"/><path d="M100.466 55.984a32.772 32.772 0 01-11.415 2.075 31.488 31.488 0 0118.837-8.046c.824-.068 1.133.876.565 1.479-1.279 1.354-4.53 3.173-7.987 4.492z" fill="#DBD8DD"/><path d="M85.54 54.079S79.55 41.67 65.247 43.117a2.273 2.273 0 00-1.592.93 11.458 11.458 0 00-2.287 7.282c.27 4.78 17.92 8.463 17.92 8.463l3.742-.743 2.51-4.97z" fill="#EEEFEE"/><path d="M70.616 55.984a32.774 32.774 0 0011.415 2.075 32.879 32.879 0 00-9.891-6.06 33.158 33.158 0 00-8.945-1.986c-.825-.068-1.133.876-.566 1.479 1.275 1.354 4.535 3.173 7.987 4.492z" fill="#DBD8DD"/><path d="M89.627 58.63a4.487 4.487 0 10-8.942-.763 4.487 4.487 0 008.942.763z" fill="#DBD8DD"/><path d="M121.395 58.22H48.921a.92.92 0 00-.921.92v11.97c0 .509.412.92.92.92h72.475a.92.92 0 00.921-.92V59.14a.92.92 0 00-.921-.92z" fill="#FEAFFF"/><path d="M118.654 69.499v45.58a.929.929 0 01-.27.651.927.927 0 01-.65.27H52.587a.926.926 0 01-.92-.921v-45.58h66.987z" fill="#FEAFFF"/><path d="M51.667 72.031h66.988v3.222H51.667v-3.222z" fill="#FE80FF"/><path d="M79.772 58.22h10.777v57.779H79.772v-57.78z" fill="#EEEFEE"/><path d="M79.77 72.031h10.782v3.222H79.769v-3.222z" fill="#DBD8DD"/></g><defs><radialGradient id="paint1_radial" cx="0" cy="0" r="1" gradientUnits="userSpaceOnUse" gradientTransform="translate(84.5 82.5) scale(69.1957)"><stop offset=".005" stop-color="#8D00DB" stop-opacity=".5"/><stop offset="1" stop-color="#FC54FF" stop-opacity="0"/></radialGradient><linearGradient id="paint0_linear" x1="36.063" y1="130.937" x2="132.937" y2="34.063" gradientUnits="userSpaceOnUse"><stop stop-color="#40509B"/><stop offset="1" stop-color="#910197"/></linearGradient><filter id="filter0_d" x="0" y="0" width="169" height="169" filterUnits="userSpaceOnUse" color-interpolation-filters="sRGB"><feFlood flood-opacity="0" result="BackgroundImageFix"/><feColorMatrix in="SourceAlpha" values="0 0 0 0 0 0 0 0 0 0 0 0 0 0 0 0 0 0 127 0"/><feMorphology radius="8" operator="dilate" in="SourceAlpha" result="effect1_dropShadow"/><feOffset dy="2"/><feGaussianBlur stdDeviation="4"/><feColorMatrix values="0 0 0 0 0.152941 0 0 0 0 0.270588 0 0 0 0 0.588235 0 0 0 0.03 0"/><feBlend in2="BackgroundImageFix" result="effect1_dropShadow"/><feBlend in="SourceGraphic" in2="effect1_dropShadow" result="shape"/></filter></defs></svg>