<svg xmlns="http://www.w3.org/2000/svg" width="205.6" height="71.7" fill="none">
  <rect width="100%" height="100%"/>
  <defs>
    <linearGradient id="b" x1=".5" y1="0" x2=".5" y2="1">
      <stop stop-color="#3F4A99"/>
      <stop offset="1" stop-color="#8A0094"/>
    </linearGradient>
    <linearGradient id="c" x1=".5" y1="0" x2=".5" y2="1">
      <stop stop-color="#3F4A99"/>
      <stop offset="1" stop-color="#8A0094"/>
    </linearGradient>
    <filter id="a" x="0" y="0" width="104" height="104" filterUnits="userSpaceOnUse" color-interpolation-filters="sRGB">
      <feFlood flood-opacity="0" result="BackgroundImageFix"/>
      <feColorMatrix in="SourceAlpha" values="0 0 0 0 0 0 0 0 0 0 0 0 0 0 0 0 0 0 127 0"/>
      <feMorphology radius="8" operator="dilate" in="SourceAlpha" result="effect1_dropShadow"/>
      <feOffset dy="2"/>
      <feGaussianBlur stdDeviation="4"/>
      <feColorMatrix values="0 0 0 0 0.152941 0 0 0 0 0.270588 0 0 0 0 0.588235 0 0 0 0.03 0"/>
      <feBlend in2="BackgroundImageFix" result="effect1_dropShadow"/>
      <feBlend in="SourceGraphic" in2="effect1_dropShadow" result="shape"/>
    </filter>
  </defs>
  <g class="currentLayer">
    <g filter="url(#a)">
      <path d="M.5 15.3a15 15 0 0115-15h42a15 15 0 0115 15v42a15 15 0 01-15 15h-42a15 15 0 01-15-15v-42z" fill="#fff"/>
    </g>
    <path d="M129.3 36.4c.9.3 1.6.8 2 1.5.6.6.8 1.4.8 2.3 0 1.3-.5 2.4-1.7 3.1a8.8 8.8 0 01-4.8 1.1h-8.7V29h8.3c2 0 3.6.4 4.6 1.1 1 .8 1.6 1.7 1.6 3 0 .7-.2 1.3-.6 1.9-.3.6-.8 1-1.5 1.4zm-7.3-3.7v2.2h2.5c1 0 1.7-.3 1.7-1.1s-.6-1.1-1.7-1.1H122zm3.2 8.1c1.1 0 1.7-.4 1.7-1.2 0-.8-.6-1.2-1.7-1.2H122v2.4h3.2zm21.6-.3v4h-12.9V29h12.6v4H139v1.7h6.5v3.8H139v2h7.7zm5.3-7.4h-4.5v-4h14.2v4h-4.5v11.3H152V33.1zm27.5-.2l-5.8 13c-.5 1-1 1.8-1.7 2.2-.6.5-1.3.7-2.2.7a4.5 4.5 0 01-1.5-.3 3.4 3.4 0 01-1.3-.7l.7-1.2c.6.6 1.3.9 2.1.9.6 0 1-.2 1.4-.5a4 4 0 001-1.5l.5-1-5.1-11.6h1.6l4.4 9.8 4.3-9.8h1.6zm6.6 11.6a6 6 0 01-3-.7 5.6 5.6 0 01-2.2-2.1 6 6 0 01-.7-3 6 6 0 01.7-3 5.5 5.5 0 012.1-2.2 6 6 0 013-.7 6 6 0 013 .7 5.3 5.3 0 012.2 2.1c.5.9.7 2 .7 3a6 6 0 01-.7 3 5.5 5.5 0 01-2.1 2.2 6 6 0 01-3 .7zm0-1.3c.8 0 1.5-.2 2.2-.6a4 4 0 001.5-1.6 5 5 0 00.5-2.4 5 5 0 00-.5-2.3 3.8 3.8 0 00-1.5-1.6c-.7-.4-1.4-.6-2.2-.6-.9 0-1.6.2-2.3.6a4 4 0 00-1.5 1.6 5 5 0 00-.6 2.3c0 1 .2 1.7.6 2.4a4.2 4.2 0 001.5 1.6c.7.4 1.4.6 2.3.6zm19.4-10.3v11.5h-1.4v-2a4.4 4.4 0 01-1.7 1.6c-.8.3-1.6.5-2.5.5a5 5 0 01-3.6-1.2c-.9-.9-1.3-2.1-1.3-3.7v-6.7h1.6v6.5c0 1.2.3 2.2.9 2.8.6.6 1.4 1 2.5 1 1.3 0 2.2-.4 3-1.2.6-.7 1-1.8 1-3v-6.1h1.5z" fill="#222"/>
    <path d="M91.9 12.5a1 1 0 012 0v53a1 1 0 01-2 0v-53z" fill="#274596" fill-opacity=".1"/>
    <path d="M18.5 18.3h17v17h-17v-17z" fill="url(#b)"/>
    <path d="M18.5 38.3h17v17h-17v-17z" fill="#222"/>
    <path d="M38.5 38.3h17v17h-17v-17z" fill="url(#c)"/>
  </g>
</svg>
