<svg xmlns="http://www.w3.org/2000/svg" width="206.0895522982911" height="74.29850747118445" fill="none"><rect id="backgroundrect" width="100%" height="100%" x="0" y="0" fill="none" stroke="none" class="selected" style=""/>






<defs>
<filter id="filter0_d" x="0" y="0" width="104" height="104" filterUnits="userSpaceOnUse" color-interpolation-filters="sRGB">
<feFlood flood-opacity="0" result="BackgroundImageFix"/>
<feColorMatrix in="SourceAlpha" type="matrix" values="0 0 0 0 0 0 0 0 0 0 0 0 0 0 0 0 0 0 127 0"/>
<feMorphology radius="8" operator="dilate" in="SourceAlpha" result="effect1_dropShadow"/>
<feOffset dy="2"/>
<feGaussianBlur stdDeviation="4"/>
<feColorMatrix type="matrix" values="0 0 0 0 0.152941 0 0 0 0 0.270588 0 0 0 0 0.588235 0 0 0 0.03 0"/>
<feBlend mode="normal" in2="BackgroundImageFix" result="effect1_dropShadow"/>
<feBlend mode="normal" in="SourceGraphic" in2="effect1_dropShadow" result="shape"/>
</filter>
<linearGradient id="paint0_linear" x1="0.5" y1="0" x2="0.5" y2="1">
<stop stop-color="#3F4A99"/>
<stop offset="1" stop-color="#8A0094"/>
</linearGradient>
<linearGradient id="paint1_linear" x1="0.5" y1="0" x2="0.5" y2="1">
<stop stop-color="#3F4A99"/>
<stop offset="1" stop-color="#8A0094"/>
</linearGradient>
</defs>
<g class="currentLayer" style=""><title>Layer 1</title><g filter="url(#filter0_d)" id="svg_1" class="">
<path d="M1.8741260170936584,16.2727270424366 C1.8741260170936584,7.9884270424366015 8.58982601709366,1.2727270424366 16.87412601709366,1.2727270424366 H58.87412601709366 C67.15842601709366,1.2727270424366 73.87412601709366,7.9884270424366015 73.87412601709366,16.2727270424366 V58.2727270424366 C73.87412601709366,66.5570270424366 67.15842601709366,73.2727270424366 58.87412601709366,73.2727270424366 H16.87412601709366 C8.58982601709366,73.2727270424366 1.8741260170936584,66.5570270424366 1.8741260170936584,58.2727270424366 V16.2727270424366 z" fill="#EBEBEB" id="svg_2"/>
</g><path d="M127.44812601709367,37.2207270424366 C128.35712601709366,37.5580270424366 129.06112601709367,38.0494270424366 129.56012601709367,38.6947270424366 C130.05912601709366,39.3400270424366 130.30812601709366,40.1174270424366 130.30812601709366,41.0267270424366 C130.30812601709366,42.3760270424366 129.75112601709367,43.4247270424366 128.63612601709366,44.1727270424366 C127.52112601709365,44.9060270424366 125.90812601709365,45.2727270424366 123.79612601709366,45.2727270424366 H115.12812601709365 V29.8727270424366 H123.35612601709366 C125.40912601709366,29.8727270424366 126.95712601709366,30.239427042436603 127.99812601709365,30.972727042436603 C129.05412601709367,31.706027042436602 129.58212601709366,32.6814270424366 129.58212601709366,33.8987270424366 C129.58212601709366,34.6174270424366 129.39912601709366,35.2627270424366 129.03212601709365,35.8347270424366 C128.68012601709367,36.4067270424366 128.15212601709365,36.8687270424366 127.44812601709367,37.2207270424366 zM120.23212601709366,33.5027270424366 V35.7907270424366 H122.65212601709365 C123.78112601709367,35.7907270424366 124.34612601709367,35.4094270424366 124.34612601709367,34.6467270424366 C124.34612601709367,33.8840270424366 123.78112601709367,33.5027270424366 122.65212601709365,33.5027270424366 H120.23212601709366 zM123.35612601709366,41.6427270424366 C124.50012601709366,41.6427270424366 125.07212601709367,41.2394270424366 125.07212601709367,40.432727042436596 C125.07212601709367,39.6260270424366 124.50012601709366,39.2227270424366 123.35612601709366,39.2227270424366 H120.23212601709366 V41.6427270424366 H123.35612601709366 zM144.94812601709367,41.3567270424366 V45.2727270424366 H132.14412601709367 V29.8727270424366 H144.66212601709367 V33.7887270424366 H137.24812601709365 V35.5927270424366 H143.76012601709365 V39.3327270424366 H137.24812601709365 V41.3567270424366 H144.94812601709367 zM150.29012601709366,33.8987270424366 H145.78012601709366 V29.8727270424366 H159.99212601709365 V33.8987270424366 H155.48212601709366 V45.2727270424366 H150.29012601709366 V33.8987270424366 zM177.74712601709365,33.7007270424366 L171.96112601709365,46.6587270424366 C171.49112601709365,47.7440270424366 170.94912601709365,48.5140270424366 170.33312601709366,48.9687270424366 C169.71712601709365,49.4234270424366 168.97612601709366,49.6507270424366 168.11112601709365,49.6507270424366 C167.55312601709366,49.6507270424366 167.03312601709365,49.5627270424366 166.54912601709367,49.3867270424366 C166.06512601709366,49.2107270424366 165.64712601709365,48.9467270424366 165.29512601709365,48.5947270424366 L166.02112601709365,47.4287270424366 C166.60712601709366,48.0154270424366 167.31112601709367,48.3087270424366 168.13312601709364,48.3087270424366 C168.66112601709366,48.3087270424366 169.10812601709367,48.1620270424366 169.47512601709366,47.8687270424366 C169.85612601709366,47.5754270424366 170.20812601709366,47.0767270424366 170.53112601709367,46.3727270424366 L171.03712601709367,45.2507270424366 L165.86712601709365,33.7007270424366 H167.49512601709367 L171.85112601709366,43.5347270424366 L176.20712601709366,33.7007270424366 H177.74712601709365 zM184.35412601709365,45.3827270424366 C183.24012601709367,45.3827270424366 182.23512601709365,45.1334270424366 181.34012601709367,44.6347270424366 C180.44612601709366,44.1214270424366 179.74212601709365,43.4174270424366 179.22812601709367,42.5227270424366 C178.71512601709367,41.6280270424366 178.45812601709366,40.6160270424366 178.45812601709366,39.4867270424366 C178.45812601709366,38.3574270424366 178.71512601709367,37.3454270424366 179.22812601709367,36.4507270424366 C179.74212601709365,35.5560270424366 180.44612601709366,34.8594270424366 181.34012601709367,34.3607270424366 C182.23512601709365,33.8620270424366 183.24012601709367,33.6127270424366 184.35412601709365,33.6127270424366 C185.46912601709366,33.6127270424366 186.47412601709365,33.8620270424366 187.36812601709366,34.3607270424366 C188.26312601709367,34.8594270424366 188.96012601709367,35.5560270424366 189.45812601709366,36.4507270424366 C189.97212601709367,37.3454270424366 190.22812601709367,38.3574270424366 190.22812601709367,39.4867270424366 C190.22812601709367,40.6160270424366 189.97212601709367,41.6280270424366 189.45812601709366,42.5227270424366 C188.96012601709367,43.4174270424366 188.26312601709367,44.1214270424366 187.36812601709366,44.6347270424366 C186.47412601709365,45.1334270424366 185.46912601709366,45.3827270424366 184.35412601709365,45.3827270424366 zM184.35412601709365,43.996727042436596 C185.17612601709365,43.996727042436596 185.90912601709366,43.8134270424366 186.55412601709367,43.4467270424366 C187.21412601709366,43.0654270424366 187.72812601709367,42.5300270424366 188.09412601709366,41.8407270424366 C188.46112601709365,41.1514270424366 188.64412601709367,40.3667270424366 188.64412601709367,39.4867270424366 C188.64412601709367,38.6067270424366 188.46112601709365,37.8220270424366 188.09412601709366,37.1327270424366 C187.72812601709367,36.443427042436596 187.21412601709366,35.9154270424366 186.55412601709367,35.5487270424366 C185.90912601709366,35.1674270424366 185.17612601709365,34.9767270424366 184.35412601709365,34.9767270424366 C183.53312601709365,34.9767270424366 182.79212601709366,35.1674270424366 182.13212601709367,35.5487270424366 C181.48712601709366,35.9154270424366 180.97412601709365,36.443427042436596 180.59212601709365,37.1327270424366 C180.22612601709366,37.8220270424366 180.04212601709366,38.6067270424366 180.04212601709366,39.4867270424366 C180.04212601709366,40.3667270424366 180.22612601709366,41.1514270424366 180.59212601709365,41.8407270424366 C180.97412601709365,42.5300270424366 181.48712601709366,43.0654270424366 182.13212601709367,43.4467270424366 C182.79212601709366,43.8134270424366 183.53312601709365,43.996727042436596 184.35412601709365,43.996727042436596 zM203.84512601709366,33.7007270424366 V45.2727270424366 H202.34912601709365 V43.1607270424366 C201.93912601709366,43.8647270424366 201.37412601709366,44.4147270424366 200.65512601709366,44.8107270424366 C199.93712601709365,45.1920270424366 199.11512601709367,45.3827270424366 198.19112601709367,45.3827270424366 C196.68112601709365,45.3827270424366 195.48512601709365,44.9647270424366 194.60512601709365,44.1287270424366 C193.74012601709367,43.2780270424366 193.30712601709365,42.0387270424366 193.30712601709365,40.4107270424366 V33.7007270424366 H194.86912601709366 V40.2567270424366 C194.86912601709366,41.4740270424366 195.17012601709365,42.3980270424366 195.77112601709365,43.0287270424366 C196.37312601709365,43.6594270424366 197.23112601709366,43.9747270424366 198.34512601709366,43.9747270424366 C199.56312601709365,43.9747270424366 200.52312601709366,43.608027042436596 201.22712601709367,42.8747270424366 C201.93112601709365,42.1267270424366 202.28312601709365,41.0927270424366 202.28312601709365,39.7727270424366 V33.7007270424366 H203.84512601709366 z" fill="#EBEBEB" id="svg_3" class=""/><rect x="94.87412601709366" y="9.2727270424366" width="2" height="55" rx="1" fill="#274596" fill-opacity="0.07" id="svg_4" class=""/><rect x="19.87412601709366" y="19.2727270424366" width="17" height="17" fill="url(#paint0_linear)" id="svg_5" class=""/><rect x="19.87412601709366" y="39.2727270424366" width="17" height="17" fill="#222222" id="svg_6" class=""/><rect x="39.87412601709366" y="39.2727270424366" width="17" height="17" fill="url(#paint1_linear)" id="svg_7" class=""/></g></svg>