<svg xmlns="http://www.w3.org/2000/svg" width="137" height="132.36" viewBox="0 0 137 132.36" fill="none">
<g filter="url(#filter0_d)" transform="translate(-16 -14.5)">
<path d="M84.5 147C122.331 147 153 117.369 153 80.8184C153 44.2672 122.331 14.6367 84.5 14.6367C46.6685 14.6367 16 44.2672 16 80.8184C16 117.369 46.6685 147 84.5 147Z" fill="url(#paint0_linear)"/>
<path d="M84.5 147C122.331 147 153 117.369 153 80.8184C153 44.2672 122.331 14.6367 84.5 14.6367C46.6685 14.6367 16 44.2672 16 80.8184C16 117.369 46.6685 147 84.5 147Z" fill="url(#paint1_radial)"/>
<g transform="translate(30 55)">
	<path d="M94.9504 11.8383V5.11983C94.9504 2.39258 92.7692 0.181641 89.9462 0.181641H32.0696V11.8383H94.9504Z" fill="#FEAFFF"/>
	<path d="M34.4744 11.8383C33.6495 10.7849 33.1596 9.47301 33.1596 8.05017C33.1596 3.70449 36.8059 0.181641 41.3039 0.181641H23.4448C20.622 0.181641 18.3336 2.39258 18.3336 5.11983V11.8383H34.4744Z" fill="#FC54FF"/>
	<path d="M18.3334 11.0613H55.674V23.205H18.3334V11.0613Z" fill="#FE81FF"/>
	<path d="M47.5073 17.1332C47.5073 20.4865 50.321 23.205 53.792 23.205H94.9503V11.0613H53.792C50.3212 11.0613 47.5073 13.7798 47.5073 17.1332Z" fill="#FE80FF"/>
	<path d="M32.0696 22.1194V49.094H89.9462C92.769 49.094 94.9504 46.8831 94.9504 44.1558V22.1194H32.0696Z" fill="#FEAFFF"/>
	<path d="M18.3334 22.1196V44.1558C18.3334 46.8833 20.6218 49.094 23.4446 49.094H41.3037C36.8057 49.094 33.1594 45.5711 33.1594 41.2253C33.1594 33.0815 39.9926 26.4796 48.4216 26.4796H94.9503V22.1194H18.3334V22.1196Z" fill="#EEEFEE"/>
	<path d="M80.5147 45.2128C83.9626 45.2128 86.7576 42.5123 86.7576 39.1811C86.7576 35.8499 83.9626 33.1494 80.5147 33.1494C77.0668 33.1494 74.2717 35.8499 74.2717 39.1811C74.2717 42.5123 77.0668 45.2128 80.5147 45.2128Z" fill="white"/>
	<path d="M46.9759 32.0824H33.0984C32.5303 32.0824 32.0698 31.6375 32.0698 31.0886V28.8849C32.0698 28.336 32.5303 27.8911 33.0984 27.8911H46.9759C47.5441 27.8911 48.0045 28.336 48.0045 28.8849V31.0886C48.0045 31.6373 47.5441 32.0824 46.9759 32.0824Z" fill="#471658"/>
	<path d="M60.0863 32.0824H52.9763C52.4082 32.0824 51.9478 31.6375 51.9478 31.0886V28.8849C51.9478 28.336 52.4082 27.8911 52.9763 27.8911H60.0863C60.6544 27.8911 61.1149 28.336 61.1149 28.8849V31.0886C61.1151 31.6373 60.6544 32.0824 60.0863 32.0824Z" fill="#471658"/>
	<path d="M73.4457 32.0824H66.3357C65.7676 32.0824 65.3071 31.6375 65.3071 31.0886V28.8849C65.3071 28.336 65.7676 27.8911 66.3357 27.8911H73.4457C74.0138 27.8911 74.4742 28.336 74.4742 28.8849V31.0886C74.4742 31.6373 74.0138 32.0824 73.4457 32.0824Z" fill="#471658"/>
	<path d="M86.8048 32.0824H79.6948C79.1267 32.0824 78.6663 31.6375 78.6663 31.0886V28.8849C78.6663 28.336 79.1267 27.8911 79.6948 27.8911H86.8048C87.3729 27.8911 87.8334 28.336 87.8334 28.8849V31.0886C87.8336 31.6373 87.3729 32.0824 86.8048 32.0824Z" fill="#471658"/>
	<path d="M46.9759 30.649H33.0984C32.5303 30.649 32.0698 30.2041 32.0698 29.6552V27.4515C32.0698 26.9026 32.5303 26.4578 33.0984 26.4578H46.9759C47.5441 26.4578 48.0045 26.9026 48.0045 27.4515V29.6552C48.0045 30.2041 47.5441 30.649 46.9759 30.649Z" fill="#9903CF"/>
	<path d="M60.0863 30.649H52.9763C52.4082 30.649 51.9478 30.2041 51.9478 29.6552V27.4515C51.9478 26.9026 52.4082 26.4578 52.9763 26.4578H60.0863C60.6544 26.4578 61.1149 26.9026 61.1149 27.4515V29.6552C61.1151 30.2041 60.6544 30.649 60.0863 30.649Z" fill="#9903CF"/>
	<path d="M73.4457 30.649H66.3357C65.7676 30.649 65.3071 30.2041 65.3071 29.6552V27.4515C65.3071 26.9026 65.7676 26.4578 66.3357 26.4578H73.4457C74.0138 26.4578 74.4742 26.9026 74.4742 27.4515V29.6552C74.4742 30.2041 74.0138 30.649 73.4457 30.649Z" fill="#9903CF"/>
	<path d="M86.8048 30.649H79.6948C79.1267 30.649 78.6663 30.2041 78.6663 29.6552V27.4515C78.6663 26.9026 79.1267 26.4578 79.6948 26.4578H86.8048C87.3729 26.4578 87.8334 26.9026 87.8334 27.4515V29.6552C87.8336 30.2041 87.3729 30.649 86.8048 30.649Z" fill="#9903CF"/>
	<path d="M18.4826 55.4533C28.2527 55.4533 36.1729 47.8011 36.1729 38.3617C36.1729 28.9222 28.2527 21.27 18.4826 21.27C8.71246 21.27 0.792236 28.9222 0.792236 38.3617C0.792236 47.8011 8.71246 55.4533 18.4826 55.4533Z" fill="#FEC502"/>
	<path d="M0 38.3615C0 48.2237 8.27493 56.2185 18.4824 56.2185V20.5046C8.27493 20.5046 0 28.4994 0 38.3615Z" fill="#FFE65A"/>
	<path d="M18.4831 25.2318C25.9766 25.2318 32.0728 31.1217 32.0728 38.3615C32.0728 45.6014 25.9766 51.4913 18.4831 51.4913C10.9898 51.4913 4.89345 45.6014 4.89345 38.3615C4.89345 31.1217 10.9897 25.2318 18.4831 25.2318ZM18.4831 20.5046C8.27553 20.5046 0.000762939 28.4995 0.000762939 38.3615C0.000762939 48.2236 8.27553 56.2185 18.4831 56.2185C28.6907 56.2185 36.9655 48.2236 36.9655 38.3615C36.9655 28.4995 28.6907 20.5046 18.4831 20.5046Z" fill="#FFA50A"/>
	<path d="M16.7231 21.6392C16.7152 21.208 16.9079 20.7726 17.3018 20.5437C8.14409 21.1021 0.797577 28.1026 0.0628001 36.9083C0.00569791 37.5925 0.573259 38.1758 1.28365 38.1758C1.9242 38.1758 2.45039 37.6978 2.50293 37.0811C3.16095 29.3541 9.71338 23.2199 17.795 22.888C17.0695 22.812 16.7127 22.2223 16.7231 21.6392Z" fill="#FFE65A"/>
	<path d="M35.6959 38.3855C35.0511 38.3855 34.5226 38.8696 34.4762 39.4909C33.8809 47.4405 27.0498 53.7458 18.6984 53.8528C19.8668 54.1274 19.9002 55.8547 18.8019 56.2153C28.4177 56.0579 36.2453 48.8064 36.9179 39.6437C36.9678 38.963 36.4026 38.3855 35.6959 38.3855Z" fill="#FA870A"/>
	<path d="M18.347 30.2781C17.8128 30.2781 17.4242 30.5831 17.4242 30.9115V31.5685C14.8502 31.9205 12.5676 33.3516 12.5676 36.3313C12.5676 39.3344 15.1902 40.3433 17.4242 41.1644V44.9653C15.6273 44.6602 14.8016 43.276 13.7816 43.276C12.8589 43.276 12.1302 44.4491 12.1302 45.2467C12.1302 46.7483 14.5101 48.2029 17.4241 48.2968V48.8833C17.4241 49.2119 17.8126 49.5168 18.3468 49.5168C18.8082 49.5168 19.2696 49.2117 19.2696 48.8833V48.2029C22.1108 47.7571 24.0534 45.9975 24.0534 43.0883C24.0534 39.9209 21.4794 38.8183 19.2696 38.0205V34.5951C20.8481 34.7124 21.3094 35.4632 22.1108 35.4632C23.1794 35.4632 23.6164 34.1729 23.6164 33.5393C23.6164 31.9205 20.7751 31.5451 19.2696 31.4982V30.9115C19.2699 30.5831 18.8084 30.2781 18.347 30.2781ZM17.6671 37.4575C16.7443 37.0821 16.1129 36.6597 16.1129 35.9795C16.1129 35.4164 16.5743 34.8767 17.6671 34.6656V37.4575ZM19.0269 44.9417V41.7979C19.9012 42.1967 20.5082 42.6894 20.5082 43.4637C20.5084 44.3083 19.8526 44.7539 19.0269 44.9417Z" fill="#FFA50A"/>
	<path d="M17.4242 46.1979C14.5101 46.104 12.1304 44.6494 12.1304 43.1478C12.1304 42.3501 12.8589 41.1771 13.7818 41.1771C14.8017 41.1771 15.6274 42.5613 17.4244 42.8663V39.0654C15.1903 38.2443 12.5677 37.2354 12.5677 34.2322C12.5677 31.2526 14.8504 29.8214 17.4244 29.4694V28.8124C17.4244 28.484 17.8129 28.179 18.3471 28.179C18.8085 28.179 19.2699 28.484 19.2699 28.8124V29.3991C20.7754 29.446 23.6167 29.8214 23.6167 31.4402C23.6167 32.0736 23.1797 33.3641 22.1111 33.3641C21.3097 33.3641 20.8484 32.6133 19.2699 32.496V35.9215C21.4797 36.7193 24.0537 37.8219 24.0537 40.9894C24.0537 43.8986 22.1111 45.6583 19.2699 46.104V46.7844C19.2699 47.113 18.8085 47.4179 18.3471 47.4179C17.8129 47.4179 17.4244 47.1129 17.4244 46.7844V46.1979H17.4242ZM17.6671 35.3586V32.5665C16.5743 32.7778 16.1129 33.3173 16.1129 33.8804C16.1129 34.5608 16.7442 34.9832 17.6671 35.3586ZM19.0268 39.699V42.8429C19.8525 42.6552 20.5082 42.2095 20.5082 41.3649C20.5083 40.5906 19.9011 40.0978 19.0268 39.699Z" fill="white"/>

</g>

</g>
<defs>
<filter id="filter0_d" x="0" y="0.636719" width="169" height="164.363" filterUnits="userSpaceOnUse" color-interpolation-filters="sRGB">
<feFlood flood-opacity="0" result="BackgroundImageFix"/>
<feColorMatrix in="SourceAlpha" type="matrix" values="0 0 0 0 0 0 0 0 0 0 0 0 0 0 0 0 0 0 127 0"/>
<feMorphology radius="8" operator="dilate" in="SourceAlpha" result="effect1_dropShadow"/>
<feOffset dy="2"/>
<feGaussianBlur stdDeviation="4"/>
<feColorMatrix type="matrix" values="0 0 0 0 0.152941 0 0 0 0 0.270588 0 0 0 0 0.588235 0 0 0 0.03 0"/>
<feBlend mode="normal" in2="BackgroundImageFix" result="effect1_dropShadow"/>
<feBlend mode="normal" in="SourceGraphic" in2="effect1_dropShadow" result="shape"/>
</filter>
<linearGradient id="paint0_linear" x1="36.0633" y1="127.616" x2="129.603" y2="30.7995" gradientUnits="userSpaceOnUse">
<stop stop-color="#40509B"/>
<stop offset="1" stop-color="#910197"/>
</linearGradient>
<radialGradient id="paint1_radial" cx="0" cy="0" r="1" gradientUnits="userSpaceOnUse" gradientTransform="translate(84.5003 80.8184) scale(69.1957 66.8538)">
<stop offset="0.0053" stop-color="#8D00DB" stop-opacity="0.5"/>
<stop offset="1" stop-color="#FC54FF" stop-opacity="0"/>
</radialGradient>
</defs>
</svg>