<svg xmlns="http://www.w3.org/2000/svg" width="137" height="137" viewBox="0 0 137 137" fill="none">
<g filter="url(#filter0_d)" transform="translate(-16 -14)">
<path d="M84.5 151C122.332 151 153 120.332 153 82.5C153 44.6685 122.332 14 84.5 14C46.6685 14 16 44.6685 16 82.5C16 120.332 46.6685 151 84.5 151Z" fill="url(#paint0_linear)"/>
<path d="M84.5 151C122.332 151 153 120.332 153 82.5C153 44.6685 122.332 14 84.5 14C46.6685 14 16 44.6685 16 82.5C16 120.332 46.6685 151 84.5 151Z" fill="url(#paint1_radial)"/>
<path d="M77.1137 96.4785C77.1346 104.153 77.1723 111.828 77.2275 119.502C77.236 120.637 78.1455 121.565 79.2586 121.57C82.7529 121.588 86.2472 121.588 89.7415 121.57C90.8544 121.565 91.7642 120.637 91.7727 119.502C91.7923 116.761 91.8099 114.02 91.8252 111.279C86.9692 106.371 82.0514 101.424 77.1137 96.4785Z" fill="url(#paint2_linear)"/>
<path d="M89.8457 76.3314C86.2821 76.3287 82.7182 76.3287 79.1546 76.3314C78.0193 76.3327 77.0975 77.2534 77.0967 78.389C77.0919 84.4189 77.0978 90.4488 77.1141 96.4786C77.1497 104.654 83.7457 111.321 91.8253 111.279C91.8865 100.316 91.9128 89.3525 91.9039 78.389C91.9026 77.2532 90.981 76.3327 89.8457 76.3314Z" fill="url(#paint3_linear)"/>
<path d="M114.733 59.7156C114.873 67.3102 114.944 74.9052 114.944 82.4998C114.944 83.6237 115.863 84.5332 116.999 84.531C120.564 84.5254 124.129 84.5187 127.695 84.5112C128.831 84.5083 129.754 83.6076 129.754 82.4998C129.754 79.8241 129.741 77.1483 129.714 74.4725C124.734 69.6122 119.726 64.6805 114.733 59.7156Z" fill="url(#paint4_linear)"/>
<path d="M126.644 40.2628C123.165 40.1044 119.687 39.9655 116.208 39.8462C115.1 39.8079 114.234 40.6896 114.27 41.8139C114.468 47.7812 114.622 53.7487 114.733 59.7157C114.876 67.8279 121.529 74.4191 129.714 74.4726C129.608 63.7695 129.287 53.0664 128.753 42.3633C128.697 41.2555 127.751 40.3142 126.644 40.2628Z" fill="url(#paint5_linear)"/>
<path d="M39.4396 100.16C39.6041 107.652 39.8731 115.145 40.2469 122.637C40.3025 123.744 41.2484 124.686 42.3562 124.737C45.8347 124.896 49.3132 125.034 52.7917 125.154C53.8995 125.192 54.7662 124.31 54.7295 123.186C54.6396 120.474 54.5588 117.761 54.4871 115.049C49.4911 110.049 44.4609 105.073 39.4396 100.16Z" fill="url(#paint6_linear)"/>
<path d="M52.001 80.4688C48.4358 80.4744 44.8703 80.4811 41.3051 80.4886C40.1693 80.4915 39.2458 81.3914 39.2458 82.4999C39.2458 88.3867 39.3103 94.2734 39.4396 100.16C39.629 108.121 46.4392 114.833 54.4874 115.049C54.2 104.199 54.0563 93.3494 54.0563 82.4999C54.0563 81.3758 53.1372 80.4663 52.001 80.4688Z" fill="url(#paint7_linear)"/>
<path d="M58.1711 84.1318C58.18 91.7479 58.2495 99.364 58.3799 106.98C58.3994 108.106 59.329 109.036 60.4541 109.053C63.9862 109.108 67.5184 109.151 71.0505 109.182C72.1756 109.192 73.0806 108.28 73.0723 107.145C73.052 104.406 73.0348 101.668 73.0215 98.9297C68.0777 93.9787 63.1136 89.0333 58.1711 84.1318Z" fill="url(#paint8_linear)"/>
<path d="M70.9846 64.0274C67.4352 64.0488 63.8855 64.0785 60.3361 64.1168C59.2053 64.1296 58.2765 65.0533 58.2634 66.1798C58.1952 72.1639 58.1644 78.1477 58.1711 84.1319C58.1856 92.2349 64.8758 98.8824 73.0214 98.9297C72.9671 87.9764 72.9671 77.0231 73.0214 66.0698C73.0271 64.9355 72.1154 64.0204 70.9846 64.0274Z" fill="url(#paint9_linear)"/>
<path d="M96.0128 75.928C96.0281 83.5954 96.0166 91.2626 95.9786 98.9301C95.9732 100.065 96.8849 100.979 98.0157 100.972C101.565 100.951 105.115 100.921 108.664 100.883C109.795 100.87 110.724 99.9466 110.737 98.8201C110.768 96.1002 110.791 93.38 110.807 90.66C105.902 85.7893 100.957 80.8659 96.0128 75.928Z" fill="url(#paint10_linear)"/>
<path d="M108.546 55.9467C105.014 55.8916 101.482 55.8488 97.9496 55.8177C96.8244 55.8075 95.9198 56.7211 95.9278 57.8551C95.9727 63.8793 96.0011 69.9038 96.0129 75.9281C96.0313 84.1069 102.632 90.7123 110.806 90.6601C110.869 79.7801 110.806 68.8999 110.62 58.0199C110.6 56.8936 109.671 55.9643 108.546 55.9467Z" fill="url(#paint11_linear)"/>
</g>
<defs>
<filter id="filter0_d" x="0" y="0" width="169" height="169" filterUnits="userSpaceOnUse" color-interpolation-filters="sRGB">
<feFlood flood-opacity="0" result="BackgroundImageFix"/>
<feColorMatrix in="SourceAlpha" type="matrix" values="0 0 0 0 0 0 0 0 0 0 0 0 0 0 0 0 0 0 127 0"/>
<feMorphology radius="8" operator="dilate" in="SourceAlpha" result="effect1_dropShadow"/>
<feOffset dy="2"/>
<feGaussianBlur stdDeviation="4"/>
<feColorMatrix type="matrix" values="0 0 0 0 0.152941 0 0 0 0 0.270588 0 0 0 0 0.588235 0 0 0 0.03 0"/>
<feBlend mode="normal" in2="BackgroundImageFix" result="effect1_dropShadow"/>
<feBlend mode="normal" in="SourceGraphic" in2="effect1_dropShadow" result="shape"/>
</filter>
<linearGradient id="paint0_linear" x1="36.0633" y1="130.937" x2="132.937" y2="34.063" gradientUnits="userSpaceOnUse">
<stop stop-color="#40509B"/>
<stop offset="1" stop-color="#910197"/>
</linearGradient>
<radialGradient id="paint1_radial" cx="0" cy="0" r="1" gradientUnits="userSpaceOnUse" gradientTransform="translate(84.5003 82.5) scale(69.1957)">
<stop offset="0.0053" stop-color="#8D00DB" stop-opacity="0.5"/>
<stop offset="1" stop-color="#FC54FF" stop-opacity="0"/>
</radialGradient>
<linearGradient id="paint2_linear" x1="74.8653" y1="117.996" x2="108.378" y2="84.4838" gradientUnits="userSpaceOnUse">
<stop stop-color="#FDA0FF"/>
<stop offset="0.3772" stop-color="#FEC1FF"/>
<stop offset="1" stop-color="white"/>
</linearGradient>
<linearGradient id="paint3_linear" x1="54.8893" y1="123.98" x2="103.124" y2="75.7459" gradientUnits="userSpaceOnUse">
<stop stop-color="#FDA0FF"/>
<stop offset="0.3772" stop-color="#FEC1FF"/>
<stop offset="1" stop-color="white"/>
</linearGradient>
<linearGradient id="paint4_linear" x1="112.683" y1="81.0758" x2="146.01" y2="47.7495" gradientUnits="userSpaceOnUse">
<stop stop-color="#FDA0FF"/>
<stop offset="0.3772" stop-color="#FEC1FF"/>
<stop offset="1" stop-color="white"/>
</linearGradient>
<linearGradient id="paint5_linear" x1="93.5789" y1="86.1166" x2="139.65" y2="40.0455" gradientUnits="userSpaceOnUse">
<stop stop-color="#FDA0FF"/>
<stop offset="0.3772" stop-color="#FEC1FF"/>
<stop offset="1" stop-color="white"/>
</linearGradient>
<linearGradient id="paint6_linear" x1="38.011" y1="121.187" x2="69.8999" y2="89.2978" gradientUnits="userSpaceOnUse">
<stop stop-color="#FDA0FF"/>
<stop offset="0.3772" stop-color="#FEC1FF"/>
<stop offset="1" stop-color="white"/>
</linearGradient>
<linearGradient id="paint7_linear" x1="18.1182" y1="127.115" x2="65.1576" y2="80.0749" gradientUnits="userSpaceOnUse">
<stop stop-color="#FDA0FF"/>
<stop offset="0.3772" stop-color="#FEC1FF"/>
<stop offset="1" stop-color="white"/>
</linearGradient>
<linearGradient id="paint8_linear" x1="57.9108" y1="103.781" x2="118.487" y2="43.2047" gradientUnits="userSpaceOnUse">
<stop stop-color="#FC54FF"/>
<stop offset="0.2201" stop-color="#FD75FF"/>
<stop offset="0.7016" stop-color="#FEC8FF"/>
<stop offset="1" stop-color="white"/>
</linearGradient>
<linearGradient id="paint9_linear" x1="41.957" y1="105.824" x2="108.837" y2="38.9451" gradientUnits="userSpaceOnUse">
<stop stop-color="#FC54FF"/>
<stop offset="0.2201" stop-color="#FD75FF"/>
<stop offset="0.7016" stop-color="#FEC8FF"/>
<stop offset="1" stop-color="white"/>
</linearGradient>
<linearGradient id="paint10_linear" x1="95.4908" y1="95.6739" x2="157.178" y2="33.9865" gradientUnits="userSpaceOnUse">
<stop stop-color="#FC54FF"/>
<stop offset="0.2201" stop-color="#FD75FF"/>
<stop offset="0.7016" stop-color="#FEC8FF"/>
<stop offset="1" stop-color="white"/>
</linearGradient>
<linearGradient id="paint11_linear" x1="79.7923" y1="97.4015" x2="146.078" y2="31.1163" gradientUnits="userSpaceOnUse">
<stop stop-color="#FC54FF"/>
<stop offset="0.2201" stop-color="#FD75FF"/>
<stop offset="0.7016" stop-color="#FEC8FF"/>
<stop offset="1" stop-color="white"/>
</linearGradient>
</defs>
</svg>